<?xml version="1.0" encoding="UTF-8" standalone="no"?>
<!-- Created with Inkscape (http://www.inkscape.org/) -->
<svg
   xmlns:dc="http://purl.org/dc/elements/1.1/"
   xmlns:cc="http://web.resource.org/cc/"
   xmlns:rdf="http://www.w3.org/1999/02/22-rdf-syntax-ns#"
   xmlns:svg="http://www.w3.org/2000/svg"
   xmlns="http://www.w3.org/2000/svg"
   xmlns:sodipodi="http://sodipodi.sourceforge.net/DTD/sodipodi-0.dtd"
   xmlns:inkscape="http://www.inkscape.org/namespaces/inkscape"
   width="717.46039"
   height="487.11807"
   id="svg36305"
   sodipodi:version="0.32"
   inkscape:version="0.45.1"
   sodipodi:docbase="D:\Chris\Daten\Graphik\svg\Wikipedia\Nur vektorisiert"
   sodipodi:docname="Bodoni Ornaments £ 01.svg"
   inkscape:output_extension="org.inkscape.output.svg.inkscape"
   version="1.0">
  <defs
     id="defs36307" />
  <sodipodi:namedview
     id="base"
     pagecolor="#ffffff"
     bordercolor="#666666"
     borderopacity="1.0"
     inkscape:pageopacity="0.0"
     inkscape:pageshadow="2"
     inkscape:zoom="0.35"
     inkscape:cx="350"
     inkscape:cy="520"
     inkscape:document-units="px"
     inkscape:current-layer="layer1"
     inkscape:window-width="801"
     inkscape:window-height="579"
     inkscape:window-x="192"
     inkscape:window-y="47" />
  <metadata
     id="metadata36310">
    <rdf:RDF>
      <cc:Work
         rdf:about="">
        <dc:format>image/svg+xml</dc:format>
        <dc:type
           rdf:resource="http://purl.org/dc/dcmitype/StillImage" />
      </cc:Work>
    </rdf:RDF>
  </metadata>
  <g
     inkscape:label="Ebene 1"
     inkscape:groupmode="layer"
     id="layer1"
     transform="translate(-5.5151154,-177.78805)">
    <path
       style="fill:#000000"
       d="M 128.37637,663.73571 C 117.84476,662.47752 113.72345,658.1477 110.5783,645.03724 C 105.45525,623.68199 86.121394,610.45739 56.923424,608.33664 C 42.667744,607.30121 41.525814,607.57898 35.153034,613.63245 C 31.453971,617.14617 26.544452,623.68153 24.242989,628.15548 C 19.757266,636.87556 12.285959,640.85852 8.1579053,636.73047 C 3.8689333,632.44151 5.0376903,605.6932 9.9512353,595.68811 C 15.950288,583.47268 34.365614,565.58283 47.635354,559.07929 C 56.736084,554.61898 62.027214,553.65854 77.498464,553.65854 C 87.839954,553.65854 100.9609,554.45581 106.65612,555.43028 L 117.01108,557.20203 L 118.38396,546.58195 C 125.38562,492.41966 132.41712,475.1296 147.44212,475.1296 C 150.20812,475.1296 155.26964,478.56766 159.35686,483.22277 C 166.0365,490.83045 166.38439,492.05789 165.15623,503.68453 C 164.43764,510.48726 163.22197,522.16912 162.45474,529.64423 C 160.62598,547.46187 164.03659,557.29872 176.75877,570.89975 C 194.61346,589.98786 217.96578,598.20776 248.68348,596.21688 C 268.51608,594.93149 283.72541,589.79291 301.66624,578.31631 C 339.52347,554.09934 378.81681,501.11794 400.30321,445.31858 C 410.6176,418.53258 418.52073,389.73113 417.75113,381.73313 C 417.05567,374.5059 416.99488,374.55342 400.8286,394.96326 C 390.29938,408.25633 379.42819,419.09741 369.85945,425.84665 C 361.74993,431.56664 344.78436,444.04039 332.15821,453.56611 C 319.53206,463.09182 308.14676,470.53398 306.85751,470.10424 C 305.56829,469.67449 303.62579,466.3988 302.54088,462.82489 C 301.45596,459.25101 300.21078,455.16102 299.77383,453.73606 C 299.21908,451.92702 294.18416,452.81283 283.08831,456.67158 C 266.00995,462.61085 250.95119,462.42369 238.63706,456.11909 C 222.09523,447.65003 221.63511,439.28278 236.79884,422.69125 L 247.88965,410.55612 L 243.32159,404.68443 C 223.1371,378.73968 215.97729,361.44067 217.23681,341.66027 C 217.96008,330.3016 219.40278,325.79764 224.42848,319.2086 C 230.89966,310.72446 241.64737,304.79297 250.52289,304.8075 C 264.53017,304.83045 283.22216,325.73962 283.22216,341.38543 C 283.22216,355.92446 277.82904,360.94511 260.75222,362.30351 L 246.72373,363.41943 L 254.85828,372.26776 L 262.99282,381.11609 L 285.82696,381.05301 C 307.16559,380.99407 309.86254,380.46406 327.00479,372.96073 C 365.09064,356.2902 408.28122,323.507 424.58354,298.89498 C 436.7473,280.53108 434.67166,280.57619 404.71997,299.32668 C 375.37008,317.70042 357.69219,323.41462 334.46294,322.03658 C 315.18121,320.89271 303.97802,316.16366 300.80999,307.83109 C 298.94618,302.92892 299.89671,300.83463 308.39445,291.12046 C 322.49486,275.00155 324.67719,270.28072 320.79647,264.29221 C 310.29514,248.08712 307.29852,239.47545 308.73858,229.64034 C 311.1286,213.31755 317.55327,203.26453 328.76395,198.30551 C 358.17118,185.29729 385.3223,211.98986 364.18439,233.12776 C 357.83936,239.47279 355.0926,240.64884 346.61829,240.64884 C 334.6013,240.64884 332.70902,242.74567 338.81315,249.29768 C 344.96838,255.90455 352.57556,258.50674 365.99755,258.59669 C 383.41201,258.71338 400.11001,251.6228 443.00225,225.89766 C 474.78705,206.83435 507.87069,191.30245 532.08147,184.07731 C 555.02539,177.23023 588.80965,175.78598 611.71645,180.67298 C 644.67728,187.70493 674.68122,209.87351 688.08335,237.09708 C 693.98573,249.08654 695.406,254.94383 696.30535,271.00537 C 697.58672,293.88949 695.1077,304.75791 685.23814,319.52581 C 667.00014,346.81548 621.19069,350.9207 601.1169,327.06435 C 593.55687,318.07975 592.18799,312.52712 593.28518,295.29608 C 594.48395,276.46965 600.55227,265.18986 612.86636,258.89852 C 626.18591,252.09349 634.36181,252.63277 651.23858,261.42956 C 659.16116,265.55908 666.20156,268.37948 666.88392,267.69712 C 669.83769,264.74334 667.64994,249.89051 663.06274,241.75488 C 652.67843,223.33779 624.83333,210.9645 594.01979,211.07484 C 569.54716,211.16247 554.90714,217.14249 535.98578,234.78002 C 503.69824,264.87685 489.88821,300.77666 495.52028,339.97206 C 503.99915,398.97938 541.10951,446.42849 605.67402,480.81417 C 625.97888,491.62809 634.94332,499.68263 634.94332,507.11262 C 634.94332,513.80691 627.73094,518.83115 607.4772,526.24592 C 600.07561,528.95557 593.70402,531.40461 593.31805,531.6882 C 591.86569,532.75539 604.86174,556.37619 613.92555,569.14311 C 636.27123,600.61829 672.62005,625.92593 707.49944,634.29337 C 720.82018,637.48897 724.52453,642.23216 722.42788,653.40829 C 720.57979,663.25951 714.66079,666.24306 700.65196,664.38473 C 674.22414,660.87896 637.33914,638.918 610.24157,610.55531 C 595.49461,595.11982 591.26205,588.58931 574.50208,555.41188 C 561.23181,529.14258 553.0961,515.67511 547.56143,510.8156 C 539.17772,503.45461 513.57959,489.576 511.75387,491.40172 C 511.16139,491.99419 513.32974,497.0061 516.57241,502.53932 C 522.84459,513.24195 522.64995,518.42256 515.74077,524.67528 C 511.91049,528.14165 510.91262,527.77425 498.19743,518.21606 C 484.07671,507.60131 469.17384,490.55587 462.3449,477.209 C 456.74864,466.27136 452.05345,447.07889 448.12141,419.06793 C 444.43771,392.82618 441.75291,384.75665 439.63389,393.55765 C 434.8966,413.23305 432.53775,441.81951 432.53775,479.55377 C 432.53775,521.64822 432.67992,522.99268 438.42837,535.25545 C 444.63023,548.48551 454.91562,557.74494 472.86619,566.25812 C 486.64828,572.79438 491.87638,582.54495 490.78543,599.678 C 490.08393,610.69474 488.49128,615.46045 482.69613,623.8834 C 463.87071,651.2452 438.82537,652.12331 416.02517,626.22091 C 404.75948,613.42242 403.44512,606.09954 409.15528,587.94582 C 411.64275,580.03762 413.6908,570.47934 413.70651,566.7052 C 413.73513,559.82264 403.53995,516.30053 400.66515,511.03307 C 399.70865,509.28048 395.20328,515.28175 388.67823,526.99993 C 374.42709,552.59324 355.77711,575.45567 332.67394,595.65386 C 295.30416,628.32478 262.5424,646.48597 223.34763,656.258 C 193.64287,663.66397 153.94135,666.78995 128.37637,663.73571 z "
       id="path36323" />
  </g>
</svg>
